<svg id="Capa_1" enable-background="new 0 0 516.215 516.215" height="512" viewBox="0 0 516.215 516.215" width="512" xmlns="http://www.w3.org/2000/svg"><g><g><path d="m506.433 123.436c-1.964 0-3.927-.749-5.426-2.247l-14.331-14.328c-2.998-2.997-2.998-7.855-.001-10.853 2.995-2.998 7.854-2.999 10.853-.001l14.331 14.328c2.998 2.997 2.998 7.855.001 10.853-1.498 1.499-3.462 2.248-5.427 2.248z" fill="#7e707d"/></g><g><path d="m417.985 30.702c-1.962 0-3.923-.747-5.421-2.242l-15.386-15.353c-3-2.994-3.005-7.852-.011-10.853s7.853-3.005 10.853-.011l15.386 15.353c3 2.994 3.005 7.852.011 10.853-1.499 1.501-3.466 2.253-5.432 2.253z" fill="#7e707d"/></g><g><path d="m388.12 62.843c-1.964 0-3.927-.748-5.426-2.247l-15.445-15.44c-2.997-2.996-2.998-7.855-.001-10.853 2.994-2.998 7.853-3.001 10.853-.001l15.445 15.44c2.997 2.996 2.998 7.855.001 10.853-1.498 1.499-3.462 2.248-5.427 2.248z" fill="#7e707d"/></g><g><path d="m476.569 155.578c-1.964 0-3.927-.748-5.426-2.247l-15.474-15.47c-2.997-2.997-2.998-7.855-.001-10.853 2.995-2.998 7.854-3 10.853-.001l15.474 15.47c2.997 2.997 2.998 7.855.001 10.853-1.498 1.498-3.463 2.248-5.427 2.248z" fill="#7e707d"/></g><g><path clip-rule="evenodd" d="m35.762 285.086c-48.708 48.726-43.99 132.406 10.551 186.933s138.241 59.244 186.95 10.548c21.013-21.008 33.82-48.491 33.498-77.381-.117-13.478 1.407-23.411 15.943-28.509 9.994-3.487 18.727-10.196 26.523-17.99 29.922-29.915 33.234-77.235 11.371-116.086l-44.81-44.8c-38.861-21.858-86.192-18.547-116.114 11.368-7.796 7.794-14.507 16.496-18.024 26.487-5.07 14.533-15.005 16.086-28.486 15.939-28.899-.292-56.389 12.512-77.402 33.491z" fill="#ce9875" fill-rule="evenodd"/></g><g><path clip-rule="evenodd" d="m69.055 355.054c-7.385 7.384-7.385 19.455 0 26.839l67.406 67.39c7.385 7.384 19.46 7.384 26.845 0s7.385-19.455 0-26.839l-67.406-67.39c-7.385-7.383-19.46-7.383-26.845 0z" fill="#eff6ff" fill-rule="evenodd"/></g><g><path clip-rule="evenodd" d="m242.376 231.203-47.331 47.319c7.708 19.719 27.109 37.738 44.81 44.8l47.331-47.319z" fill="#fde588" fill-rule="evenodd"/></g><g><path clip-rule="evenodd" d="m275.786 197.801-33.41 33.402 8.998 35.805 35.813 8.995 33.41-33.402 9.73-9.728-14.478-38.002-30.333-6.797z" fill="#fde588" fill-rule="evenodd"/></g><g><path clip-rule="evenodd" d="m298.991 157.227h61.002v63.364h-61.002z" fill="#fde588" fill-rule="evenodd" transform="matrix(.707 -.707 .707 .707 -37.085 288.271)"/></g><g><path clip-rule="evenodd" d="m371.767 101.815-43.111 43.129 6.419 29.974 38.392 14.826 43.11-43.1-12.396-39.233z" fill="#fde588" fill-rule="evenodd"/></g><g><path clip-rule="evenodd" d="m272.358 261.148-40.209 40.17c4.337 6.768 6.916 14.298 7.708 22.004l47.331-47.319z" fill="#fdd76f" fill-rule="evenodd"/></g><g><path clip-rule="evenodd" d="m305.768 227.746-33.41 33.402 14.829 14.855 33.41-33.402 9.73-9.728-14.859-14.855-7.004 7.032z" fill="#fdd76f" fill-rule="evenodd"/></g><g><path clip-rule="evenodd" d="m401.748 131.789-43.14 43.129 14.859 14.826 43.11-43.1z" fill="#fdd76f" fill-rule="evenodd"/></g><g><path clip-rule="evenodd" d="m358.608 174.918-43.14 43.1 14.859 14.855 43.14-43.129z" fill="#fdd76f" fill-rule="evenodd"/></g><g><path clip-rule="evenodd" d="m238.42 394.14c.293 28.89-12.514 56.373-33.498 77.381-31.271 31.234-76.931 40.493-120.042 28.714 50.32 25.872 110.136 20.569 148.381-17.668 21.013-21.008 33.82-48.491 33.498-77.381-.117-13.478 1.407-23.411 15.943-28.509 9.994-3.487 18.727-10.196 26.523-17.99 29.922-29.915 33.234-77.235 11.371-116.086l-17.203 17.17c7.708 31.761.41 64.929-22.537 87.87-7.796 7.794-16.5 14.503-26.494 17.99-14.535 5.099-16.089 15.031-15.942 28.509z" fill="#c6865c" fill-rule="evenodd"/></g><g><path clip-rule="evenodd" d="m154.397 292.968c-19.577 19.602-19.577 51.363 0 70.964 19.606 19.602 51.405 19.602 71.011 0 11.107-11.105 15.914-26.106 14.448-40.61-1.143-11.075-5.949-21.858-14.448-30.355s-19.284-13.302-30.362-14.445c-14.507-1.464-29.542 3.341-40.649 14.446z" fill="#7e707d" fill-rule="evenodd"/></g><g><path clip-rule="evenodd" d="m215.941 318.722c1.026 10.138-1.026 20.539-6.154 29.681-2.198 3.926-4.982 7.589-8.294 10.929-9.114 9.112-20.867 13.976-32.795 14.621 18.581 8.673 41.382 5.333 56.709-10.021 11.107-11.105 15.914-26.106 14.448-40.61-1.143-11.075-5.949-21.858-14.448-30.355s-19.284-13.302-30.362-14.445c-2.608-.264-5.246-.322-7.854-.176 1.788.82 3.517 1.758 5.217 2.813 3.224 1.992 6.272 4.395 9.085 7.208 8.499 8.497 13.306 19.28 14.448 30.355z" fill="#6a5c6b" fill-rule="evenodd"/></g><g><path clip-rule="evenodd" d="m142.322 428.333c-7.356 7.354-19.46 7.354-26.816 0l20.955 20.949c7.385 7.384 19.46 7.384 26.845 0s7.385-19.455 0-26.839l-20.925-20.891h.029c7.298 7.385 7.298 19.398-.088 26.781z" fill="#d9eeff" fill-rule="evenodd"/></g><g><path clip-rule="evenodd" d="m382.493 60.824c-4.22 4.219-4.337 4.395-6.799 9.815l-3.927 31.175 44.81 44.829 31.212-3.926c5.422-2.49 5.598-2.578 9.818-6.798l3.488-3.487 46.012-46.001c1.993-1.992 1.993-5.245 0-7.237l-33.938-33.929-33.967-33.929c-1.964-1.992-5.217-1.992-7.21 0l-43.872 43.833z" fill="#ffbc85" fill-rule="evenodd"/></g><g><path clip-rule="evenodd" d="m442.749 121.065c-4.22 4.219-4.367 4.336-9.818 6.827l-31.183 3.897 14.829 14.855 31.212-3.926c5.422-2.49 5.598-2.578 9.818-6.798l3.488-3.487 31.007-30.999 15.005-15.002c1.993-1.992 1.993-5.245 0-7.237l-14.859-14.825c1.993 1.992 1.993 5.245 0 7.237l-46.012 45.972z" fill="#f5a96c" fill-rule="evenodd"/></g><g><path d="m416.578 154.318c-1.965 0-3.929-.749-5.428-2.249l-44.811-44.829c-2.996-2.997-2.995-7.856.003-10.853 2.996-2.995 7.855-2.996 10.853.003l44.811 44.829c2.996 2.997 2.995 7.856-.003 10.853-1.498 1.496-3.462 2.246-5.425 2.246z" fill="#eff6ff"/></g><g><path d="m373.466 197.418c-1.964 0-3.927-.749-5.426-2.247l-44.81-44.799c-2.998-2.997-2.998-7.855-.001-10.853 2.995-2.998 7.854-2.999 10.853-.001l44.81 44.799c2.998 2.997 2.998 7.855.001 10.853-1.498 1.498-3.462 2.248-5.427 2.248z" fill="#eff6ff"/></g><g><path d="m330.327 240.548c-1.964 0-3.927-.749-5.426-2.247l-44.811-44.8c-2.998-2.997-2.998-7.855-.001-10.853 2.995-2.998 7.854-2.999 10.853-.001l44.811 44.8c2.998 2.997 2.998 7.855.001 10.853-1.498 1.498-3.462 2.248-5.427 2.248z" fill="#eff6ff"/></g><g><path d="m287.187 283.677c-1.964 0-3.927-.749-5.426-2.247l-44.811-44.8c-2.998-2.997-2.998-7.855-.001-10.853 2.995-2.998 7.854-2.999 10.853-.001l44.811 44.8c2.998 2.997 2.998 7.855.001 10.853-1.498 1.499-3.462 2.248-5.427 2.248z" fill="#eff6ff"/></g><g><path d="m436.067 115.085c-1.964 0-3.926-.748-5.424-2.245-2.999-2.996-3.001-7.855-.005-10.853l28.281-28.303c2.997-3 7.856-3.001 10.853-.005 2.999 2.996 3.001 7.855.005 10.853l-28.281 28.303c-1.499 1.5-3.465 2.25-5.429 2.25z" fill="#7e707d"/></g><g><path d="m411.009 90.034c-1.965 0-3.931-.75-5.43-2.251-2.995-2.999-2.992-7.858.007-10.853l28.31-28.274c2.999-2.994 7.858-2.993 10.853.007 2.995 2.999 2.992 7.858-.007 10.853l-28.31 28.274c-1.498 1.495-3.461 2.244-5.423 2.244z" fill="#7e707d"/></g></g></svg>